<?xml version="1.0" encoding="UTF-8" standalone="no"?> <svg width="512" height="512" viewBox="0 0 512 512" fill="none" xmlns="http://www.w3.org/2000/svg">
<path d="M48.4334 400H137.871C140.873 400 143.636 398.401 145.074 395.831L238.998 227.922C240.362 225.484 240.332 222.532 238.919 220.122L177.92 116.031C176.46 113.538 173.741 112 170.797 112H75.0363C65.3 112 59.4196 122.503 64.6846 130.489L123.598 219.851C125.275 222.395 125.337 225.643 123.76 228.247L34.307 375.86C27.8436 386.526 35.7284 400 48.4334 400Z" fill="#026466"/>
<path d="M225.05 336.031L363.929 92.0309C365.348 89.5383 367.988 88 370.848 88H472.02C478.138 88 481.974 94.6358 478.938 99.9691L344.577 336.031C343.177 338.49 343.177 341.51 344.577 343.969L383.316 412.031C386.352 417.364 382.516 424 376.398 424H275.226C272.366 424 269.726 422.462 268.307 419.969L225.05 343.969C223.65 341.51 223.65 338.49 225.05 336.031Z" fill="#CFDC00"/>
</svg>
